<svg width="24" height="28" viewBox="0 0 24 28" fill="none" xmlns="http://www.w3.org/2000/svg">
<g id="layout-11">
<path id="Path" d="M9.41177 16H0.588235C0.263529 16 0 15.7243 0 15.3846V0.615385C0 0.275692 0.263529 0 0.588235 0H9.41177C9.73647 0 10 0.275692 10 0.615385V15.3846C10 15.7243 9.73647 16 9.41177 16Z" fill="#F04037"/>
<path id="Path_2" d="M9.41177 28H0.588235C0.263529 28 0 27.712 0 27.3571V19.6429C0 19.288 0.263529 19 0.588235 19H9.41177C9.73647 19 10 19.288 10 19.6429V27.3571C10 27.712 9.73647 28 9.41177 28Z" fill="#F04037"/>
<path id="Path_3" d="M23.4118 9H14.5882C14.2635 9 14 8.712 14 8.35714V0.642857C14 0.288 14.2635 0 14.5882 0H23.4118C23.7365 0 24 0.288 24 0.642857V8.35714C24 8.712 23.7365 9 23.4118 9Z" fill="#F04037"/>
<path id="Path_4" d="M23.4118 28H14.5882C14.2635 28 14 27.7243 14 27.3846V12.6154C14 12.2757 14.2635 12 14.5882 12H23.4118C23.7365 12 24 12.2757 24 12.6154V27.3846C24 27.7243 23.7365 28 23.4118 28Z" fill="#F04037"/>
</g>
</svg>
