<svg width="34" height="28" viewBox="0 0 34 28" fill="none" xmlns="http://www.w3.org/2000/svg">
<g id="sidebar">
<path id="Path" d="M18 28H2.16C0.967065 28 0 27.0103 0 25.7895V2.21053C0 0.989686 0.967065 0 2.16 0H18V1.47368H2.16C1.76236 1.47368 1.44 1.80358 1.44 2.21053V25.7895C1.44 26.1964 1.76236 26.5263 2.16 26.5263H18V28Z" fill="#FEDC5A"/>
<path id="Shape" fill-rule="evenodd" clip-rule="evenodd" d="M20 0H31.7895C33.0103 0 34 0.989686 34 2.21053V25.7895C34 27.0103 33.0103 28 31.7895 28H20V0ZM24.4211 20.6316H29.5789C29.9859 20.6316 30.3158 20.3017 30.3158 19.8947C30.3158 19.4878 29.9859 19.1579 29.5789 19.1579H24.4211C24.0141 19.1579 23.6842 19.4878 23.6842 19.8947C23.6842 20.3017 24.0141 20.6316 24.4211 20.6316ZM29.5789 14.7368H24.4211C24.0141 14.7368 23.6842 14.4069 23.6842 14C23.6842 13.5931 24.0141 13.2632 24.4211 13.2632H29.5789C29.9859 13.2632 30.3158 13.5931 30.3158 14C30.3158 14.4069 29.9859 14.7368 29.5789 14.7368ZM24.4211 8.8421H29.5789C29.9859 8.8421 30.3158 8.51221 30.3158 8.10526C30.3158 7.69832 29.9859 7.36842 29.5789 7.36842H24.4211C24.0141 7.36842 23.6842 7.69832 23.6842 8.10526C23.6842 8.51221 24.0141 8.8421 24.4211 8.8421Z" fill="#FEDC5A"/>
</g>
</svg>
